<?xml version="1.0" standalone="no"?>
<!DOCTYPE svg PUBLIC "-//W3C//DTD SVG 20010904//EN"
 "http://www.w3.org/TR/2001/REC-SVG-20010904/DTD/svg10.dtd">
<svg version="1.0" xmlns="http://www.w3.org/2000/svg"
 width="1759.000000pt" height="918.000000pt" viewBox="0 0 1759.000000 918.000000"
 preserveAspectRatio="xMidYMid meet">

<g transform="translate(0.000000,918.000000) scale(0.100000,-0.100000)"
fill="#000000" stroke="none">
<path d="M0 8410 l0 -750 8780 0 8780 0 0 750 0 750 -8780 0 -8780 0 0 -750z
m16527 -75 c59 -17 117 -74 128 -125 16 -75 -18 -164 -77 -200 -49 -30 -56
-26 -60 35 -2 46 0 55 13 55 9 0 27 8 40 18 21 18 22 23 13 83 -7 50 -13 63
-24 59 -25 -8 -144 -5 -162 4 -15 7 -18 3 -18 -17 0 -14 -4 -37 -10 -51 -16
-42 5 -84 45 -92 23 -4 32 -10 28 -20 -7 -19 -48 -18 -68 2 -27 27 -27 9 0
-20 15 -16 32 -25 40 -22 11 4 15 -2 15 -24 0 -34 -1 -35 -38 -16 -61 32 -95
89 -95 161 0 84 45 145 124 170 56 17 47 17 106 0z m-4427 -50 c0 -8 -9 -15
-20 -15 -13 0 -20 -7 -20 -20 0 -11 7 -20 15 -20 8 0 15 -7 15 -15 0 -8 -7
-15 -15 -15 -12 0 -15 -13 -15 -60 0 -57 -1 -60 -25 -60 -24 0 -25 3 -25 60 0
33 -4 60 -10 60 -5 0 -10 7 -10 15 0 8 5 15 10 15 6 0 10 6 10 13 0 7 7 23 16
35 18 26 74 31 74 7z m58 -8 c2 -11 -3 -17 -17 -17 -23 0 -35 15 -26 31 10 15
39 6 43 -14z m92 -87 c0 -103 -1 -110 -20 -110 -19 0 -20 7 -20 110 0 103 1
110 20 110 19 0 20 -7 20 -110z m1860 0 c0 -109 0 -110 -24 -110 -23 0 -24 1
-25 110 l-2 110 26 0 25 0 0 -110z m88 87 c2 -11 -3 -17 -17 -17 -23 0 -35 15
-26 31 10 15 39 6 43 -14z m1122 -34 l1 -58 18 23 c18 20 61 31 61 15 0 -4
-12 -19 -26 -34 l-27 -28 33 -40 32 -41 -25 0 c-16 0 -34 10 -46 26 -21 27
-25 25 -22 -8 2 -13 -5 -18 -23 -18 l-26 0 0 110 0 110 25 0 c24 0 25 -3 25
-57z m158 34 c2 -11 -3 -17 -17 -17 -23 0 -35 15 -26 31 10 15 39 6 43 -14z
m92 -87 l0 -110 -25 0 -25 0 0 110 0 110 25 0 25 0 0 -110z m90 0 l0 -110 -25
0 -25 0 0 110 0 110 25 0 25 0 0 -110z m-4008 83 c24 -22 24 -77 -2 -103 -11
-11 -33 -20 -50 -20 -28 0 -30 -3 -30 -35 0 -28 -4 -35 -20 -35 -19 0 -20 7
-20 105 l0 105 52 0 c34 0 58 -6 70 -17z m1618 -10 c37 -47 2 -113 -61 -113
-26 0 -29 -3 -29 -35 0 -28 -4 -35 -20 -35 -19 0 -20 7 -20 105 l0 105 54 0
c47 0 57 -4 76 -27z m590 12 c0 -11 -11 -15 -40 -15 -38 0 -40 -2 -40 -30 0
-28 3 -30 35 -30 24 0 35 -5 35 -15 0 -10 -11 -15 -35 -15 -35 0 -35 0 -35
-45 0 -38 -3 -45 -20 -45 -19 0 -20 7 -20 105 l0 105 60 0 c47 0 60 -3 60 -15z
m1368 -9 c3 -16 0 -18 -23 -12 -34 9 -65 -1 -65 -19 0 -8 18 -24 40 -35 48
-24 63 -50 51 -83 -11 -28 -29 -37 -76 -37 -47 0 -65 9 -65 32 0 15 4 18 18
12 9 -4 30 -8 47 -8 47 -1 45 29 -5 54 -46 23 -63 54 -47 85 15 30 28 35 77
33 35 -2 46 -7 48 -22z m-1558 -16 c0 -11 7 -20 15 -20 8 0 15 -7 15 -15 0 -8
-7 -15 -15 -15 -11 0 -15 -12 -15 -45 0 -33 4 -45 15 -45 8 0 15 -7 15 -15 0
-10 -10 -15 -30 -15 -37 0 -53 28 -48 81 2 27 0 39 -9 39 -7 0 -13 7 -13 15 0
8 4 15 9 15 5 0 13 9 16 20 3 11 15 20 26 20 12 0 19 -7 19 -20z m-1870 -34
c0 -8 -11 -17 -25 -20 -23 -6 -25 -11 -25 -61 0 -52 -1 -55 -25 -55 -24 0 -25
2 -25 75 l0 75 50 0 c36 0 50 -4 50 -14z m150 -6 c48 -48 9 -130 -61 -130 -71
0 -105 76 -57 127 28 30 89 32 118 3z m210 -55 c0 -68 -2 -75 -20 -75 -18 0
-20 7 -20 75 0 68 2 75 20 75 18 0 20 -7 20 -75z m249 62 c6 -8 14 -28 17 -45
l7 -32 -51 0 c-43 0 -50 -3 -45 -16 5 -12 15 -15 44 -11 28 4 39 1 39 -8 0
-28 -83 -35 -112 -8 -27 24 -25 97 4 117 28 20 82 21 97 3z m1031 -7 c12 -12
20 -33 20 -55 0 -48 -29 -75 -79 -75 -31 0 -44 6 -60 26 -12 15 -21 37 -21 49
0 12 9 34 21 49 26 33 88 37 119 6z m150 7 c0 -7 -10 -17 -22 -22 -19 -8 -24
-19 -26 -62 -3 -45 -6 -53 -23 -53 -17 0 -19 7 -19 74 l0 74 45 0 c28 0 45 -4
45 -11z m420 -7 c26 -26 26 -70 -1 -104 -16 -20 -29 -26 -59 -26 -71 0 -104
67 -59 124 26 33 88 37 119 6z m190 -55 c0 -72 -1 -75 -24 -75 -23 0 -24 3
-25 75 -1 74 -1 75 24 75 24 0 25 -2 25 -75z m170 55 c12 -12 20 -33 20 -55 0
-48 -29 -75 -79 -75 -31 0 -44 6 -60 26 -12 15 -21 37 -21 49 0 12 9 34 21 49
26 33 88 37 119 6z m1110 -55 c0 -72 -1 -75 -24 -75 -22 0 -23 3 -25 75 -2 74
-1 75 24 75 25 0 25 -1 25 -75z"/>
<path d="M11570 8220 c0 -44 16 -52 44 -24 28 27 12 64 -26 64 -14 0 -18 -8
-18 -40z"/>
<path d="M13180 8220 c0 -41 8 -47 41 -30 34 19 18 70 -23 70 -14 0 -18 -8
-18 -40z"/>
<path d="M11861 8178 c-12 -33 2 -63 29 -63 14 0 26 8 30 20 11 29 -6 65 -30
65 -12 0 -24 -9 -29 -22z"/>
<path d="M12337 8193 c-14 -13 -6 -23 18 -23 16 0 25 6 25 15 0 15 -31 21 -43
8z"/>
<path d="M13354 8186 c-3 -8 -4 -27 -2 -43 2 -20 9 -29 25 -31 30 -4 50 36 34
67 -13 24 -49 28 -57 7z"/>
<path d="M13921 8178 c-12 -33 2 -63 30 -63 21 0 24 5 24 40 0 34 -3 40 -23
43 -16 2 -25 -3 -31 -20z"/>
<path d="M14284 8186 c-3 -8 -4 -27 -2 -43 2 -20 9 -29 25 -31 30 -4 50 36 34
67 -13 24 -49 28 -57 7z"/>
<path d="M8207 6378 c-108 -30 -152 -163 -81 -247 25 -30 63 -47 166 -76 69
-18 88 -36 88 -79 0 -43 -19 -58 -80 -64 -65 -6 -93 2 -134 39 -35 30 -35 30
-66 13 -38 -23 -38 -35 1 -74 52 -52 86 -64 174 -64 90 0 126 14 169 64 22 26
26 41 26 92 0 56 -2 63 -37 98 -23 22 -57 43 -88 52 -27 9 -69 21 -93 29 -72
21 -92 70 -47 114 37 38 101 35 158 -9 l44 -33 32 27 33 26 -32 32 c-18 18
-45 39 -60 47 -38 20 -126 26 -173 13z"/>
<path d="M8717 6206 c-50 -18 -72 -39 -98 -93 -47 -98 -6 -233 84 -274 166
-75 316 108 232 284 -35 75 -137 113 -218 83z m92 -77 c80 -28 83 -189 3 -217
-73 -25 -122 18 -122 108 0 64 23 105 63 113 12 2 22 5 23 6 1 0 15 -4 33 -10z"/>
<path d="M9090 6067 c0 -119 3 -148 18 -176 34 -63 114 -88 177 -55 19 10 31
11 33 5 2 -6 21 -11 43 -11 l39 0 0 190 0 190 -40 0 -40 0 0 -120 c0 -68 -5
-130 -11 -144 -21 -46 -94 -53 -121 -12 -4 6 -8 71 -8 144 l0 132 -45 0 -45 0
0 -143z"/>
<path d="M6530 4905 c0 -83 4 -135 10 -135 6 0 10 52 10 135 0 83 -4 135 -10
135 -6 0 -10 -52 -10 -135z"/>
<path d="M6661 5028 c-1 -12 -12 -18 -38 -21 l-38 -4 38 -1 c46 -2 46 -24 1
-33 l-29 -7 33 -1 c49 -2 38 -19 -15 -24 -27 -2 -3 -3 52 -3 55 0 79 1 53 3
-54 5 -65 22 -15 24 l32 1 -29 7 c-44 9 -44 29 1 34 l38 4 -37 1 c-25 1 -38 7
-41 20 -4 15 -5 15 -6 0z"/>
<path d="M6871 5023 c-1 -16 -9 -23 -28 -26 l-28 -4 28 -2 c39 -2 36 -31 -3
-31 -16 0 -30 -4 -30 -10 0 -5 21 -10 46 -10 38 0 45 -3 40 -16 -3 -9 -6 -20
-6 -25 0 -5 -19 -10 -42 -11 -37 -1 -39 -2 -10 -5 23 -3 32 -9 32 -23 0 -14
-9 -20 -32 -23 l-33 -4 32 -1 c28 -2 32 -6 36 -34 l4 -33 1 32 c2 28 6 32 35
36 l32 4 -32 1 c-26 2 -33 6 -33 22 0 16 7 20 33 21 24 1 26 3 9 6 -16 3 -22
9 -18 20 3 8 6 19 6 24 0 5 7 9 15 9 8 0 15 5 15 10 0 6 -13 10 -30 10 -39 0
-41 27 -2 33 l27 4 -27 2 c-19 1 -28 7 -31 24 -4 22 -4 22 -6 0z"/>
<path d="M7342 4958 l-2 -87 -45 -7 c-25 -3 -45 -10 -45 -15 0 -8 22 -6 72 7
14 4 18 -4 21 -43 l3 -48 2 47 c2 42 5 48 27 54 32 8 33 23 0 17 -24 -5 -24
-4 -28 78 l-3 84 -2 -87z"/>
<path d="M7636 5013 l-17 -33 -84 0 -85 0 0 -30 c0 -16 5 -30 10 -30 6 0 10 9
10 20 0 19 7 20 105 20 98 0 105 -1 105 -20 0 -11 5 -20 10 -20 6 0 10 14 10
30 0 27 -3 30 -30 30 -32 0 -37 9 -19 27 6 6 9 17 7 25 -3 8 -11 0 -22 -19z"/>
<path d="M7890 5025 c0 -10 -16 -15 -62 -18 l-63 -3 63 -2 c67 -2 88 -22 22
-22 l-40 0 0 -50 0 -50 65 0 c37 0 65 -4 65 -10 0 -6 -37 -10 -90 -10 -53 0
-90 -4 -90 -10 0 -6 37 -10 90 -10 89 0 90 0 90 -25 0 -18 -5 -25 -20 -25 -11
0 -20 -5 -20 -11 0 -6 12 -9 28 -7 22 2 28 8 30 36 3 29 6 32 38 32 19 0 34 5
34 10 0 6 -16 10 -35 10 -19 0 -35 5 -35 10 0 6 7 10 15 10 11 0 15 12 15 50
l0 50 -47 0 c-65 0 -43 18 27 23 l55 3 -57 2 c-44 2 -58 6 -58 17 0 8 -4 15
-10 15 -5 0 -10 -7 -10 -15z m-2 -77 c-3 -7 -17 -13 -33 -13 -16 0 -30 6 -32
13 -3 8 7 12 32 12 25 0 35 -4 33 -12z m82 -3 c0 -10 -10 -15 -30 -15 -20 0
-30 5 -30 15 0 10 10 15 30 15 20 0 30 -5 30 -15z m-80 -40 c0 -10 -11 -15
-35 -15 -24 0 -35 5 -35 15 0 10 11 15 35 15 24 0 35 -5 35 -15z m80 0 c0 -10
-10 -15 -30 -15 -20 0 -30 5 -30 15 0 10 10 15 30 15 20 0 30 -5 30 -15z"/>
<path d="M8831 5030 c-1 -18 16 -46 23 -40 2 3 -2 16 -9 30 -8 15 -14 19 -14
10z"/>
<path d="M8908 5010 c-17 -29 -19 -30 -98 -30 l-80 0 1 -32 c1 -24 3 -27 6
-10 4 21 8 22 113 22 105 0 109 -1 113 -22 3 -17 5 -14 6 10 1 29 -1 32 -29
32 -28 0 -30 2 -20 21 18 33 7 41 -12 9z"/>
<path d="M9100 5021 c0 -15 -8 -21 -32 -24 -18 -2 1 -4 42 -4 41 0 60 2 43 4
-25 3 -33 9 -33 24 0 10 -4 19 -10 19 -5 0 -10 -9 -10 -19z"/>
<path d="M9580 5011 c-6 -16 -22 -39 -36 -52 -13 -12 -24 -27 -24 -33 0 -5 15
4 33 22 25 24 42 32 70 32 33 0 37 -3 37 -25 0 -23 -4 -25 -45 -25 -45 0 -45
0 -45 -35 0 -30 -3 -35 -24 -35 -14 0 -28 -4 -31 -10 -4 -6 21 -10 69 -10 l75
0 4 -37 4 -38 1 38 2 37 55 0 c30 0 55 5 55 10 0 6 -25 10 -56 10 -54 0 -55 0
-52 28 3 23 9 28 43 33 l40 6 -42 2 c-39 1 -43 3 -43 26 0 23 3 25 50 25 28 0
50 5 50 10 0 6 -35 10 -86 10 -81 0 -86 1 -81 20 8 31 -9 24 -23 -9z m78 -123
c3 -26 1 -28 -32 -28 -33 0 -36 2 -36 31 0 28 2 30 33 27 27 -2 33 -8 35 -30z"/>
<path d="M9960 5005 c0 -32 -2 -35 -30 -35 -28 0 -29 2 -24 33 l5 32 -22 -40
c-12 -22 -28 -48 -37 -58 -8 -9 -12 -20 -8 -25 4 -4 17 5 28 21 15 20 28 27
54 27 32 0 34 -2 34 -35 0 -34 -1 -35 -40 -35 -22 0 -40 -4 -40 -10 0 -5 18
-10 40 -10 39 0 40 -1 40 -35 l0 -34 -62 -4 c-35 -2 -2 -3 72 -3 74 0 107 1
73 3 l-63 4 0 34 c0 34 1 35 40 35 22 0 40 5 40 10 0 6 -18 10 -40 10 -39 0
-40 1 -40 34 0 35 0 35 53 39 l52 3 -52 2 -53 2 0 35 c0 19 -4 35 -10 35 -5 0
-10 -16 -10 -35z"/>
<path d="M6962 4898 c1 -81 3 -105 5 -60 2 39 7 72 12 72 4 0 13 -18 20 -41
11 -36 10 -43 -5 -60 -9 -11 -15 -21 -12 -24 3 -3 13 4 23 15 l18 20 24 -22
c13 -12 23 -17 23 -11 0 5 -9 18 -19 27 -18 16 -18 20 -5 51 23 57 20 65 -31
65 l-45 0 0 40 c0 39 1 40 35 40 28 0 35 -4 35 -20 0 -10 -8 -24 -17 -29 -16
-9 -16 -10 5 -11 12 0 22 1 22 3 1 1 3 19 6 40 l6 37 -51 0 -51 0 2 -132z m78
0 c0 -13 -4 -30 -10 -38 -7 -11 -11 -9 -19 14 -12 31 -7 46 15 46 8 0 14 -10
14 -22z"/>
<path d="M7170 5015 c-43 -12 -44 -13 -12 -14 25 -1 32 -5 32 -21 0 -16 -7
-20 -32 -21 -31 -2 -31 -2 -5 -6 15 -2 27 -9 27 -14 0 -16 -20 -52 -43 -76
-11 -13 -16 -23 -9 -23 6 0 21 15 34 33 l23 32 6 -70 5 -70 2 63 c2 62 8 72
30 50 7 -7 12 -8 12 -2 0 6 -9 19 -20 29 -25 23 -21 37 11 46 24 7 24 7 -3 8
-23 1 -28 6 -28 26 0 15 6 25 14 25 8 0 18 5 21 10 8 13 -8 11 -65 -5z"/>
<path d="M7490 5010 c6 -11 15 -20 21 -20 6 0 6 7 -1 20 -6 11 -15 20 -21 20
-6 0 -6 -7 1 -20z"/>
<path d="M7560 5009 c7 -11 14 -18 17 -15 8 8 -5 36 -17 36 -7 0 -7 -6 0 -21z"/>
<path d="M8224 5003 c-4 -16 -16 -45 -26 -66 -21 -42 -18 -64 3 -26 12 23 13
23 31 -20 21 -50 16 -61 -41 -91 -25 -13 -30 -19 -17 -20 11 0 34 12 53 26
l34 26 34 -26 c49 -37 65 -32 21 7 l-38 32 19 57 c13 41 24 58 38 61 11 2 -8
5 -42 6 l-62 1 6 30 c7 38 -4 40 -13 3z m66 -62 c0 -11 -5 -32 -10 -47 -9 -24
-13 -26 -25 -13 -8 8 -17 29 -21 47 -6 31 -5 32 25 32 24 0 31 -4 31 -19z"/>
<path d="M8760 5025 c0 -15 18 -40 24 -34 3 3 -1 14 -9 25 -8 10 -14 15 -15 9z"/>
<path d="M10600 5005 c0 -23 -4 -25 -47 -25 -27 0 -55 -5 -63 -11 -11 -8 1 -9
46 -5 55 5 62 3 67 -14 3 -13 -1 -20 -16 -22 -48 -7 -46 -74 2 -72 31 1 26
-24 -9 -44 -30 -17 -39 -32 -19 -32 6 0 24 14 41 30 29 30 30 33 23 95 l-7 65
56 0 c31 0 56 3 56 8 0 4 -25 5 -55 4 -53 -4 -55 -3 -55 22 0 14 -4 26 -10 26
-5 0 -10 -11 -10 -25z m10 -110 c0 -9 -7 -18 -16 -22 -18 -7 -39 11 -30 26 11
17 46 13 46 -4z"/>
<path d="M9200 4895 c0 -83 4 -125 11 -125 6 0 10 16 9 38 -1 20 -2 74 -1 120
1 81 1 82 26 82 28 0 31 -13 11 -49 -12 -21 -11 -28 5 -55 23 -37 25 -76 5
-76 -8 0 -18 -4 -21 -10 -3 -5 3 -10 15 -10 12 0 25 10 31 24 9 20 7 31 -11
64 l-22 39 21 41 21 42 -50 0 -50 0 0 -125z"/>
<path d="M10258 4992 c-49 -9 -88 -20 -88 -25 0 -5 12 -6 28 -3 15 3 45 8 66
12 l40 7 -22 -28 c-15 -19 -22 -42 -22 -70 0 -36 5 -48 31 -69 31 -27 59 -34
59 -16 0 6 -7 10 -15 10 -27 0 -65 47 -65 78 0 37 34 80 77 98 18 8 33 16 33
19 0 7 -22 5 -122 -13z"/>
<path d="M7286 4985 c25 -19 40 -19 24 0 -7 8 -20 15 -28 15 -13 0 -12 -3 4
-15z"/>
<path d="M8454 4966 c-36 -36 -45 -86 -24 -127 30 -56 87 5 106 114 5 33 9 37
28 31 55 -17 78 -72 51 -123 -8 -17 -26 -34 -40 -37 -28 -7 -34 -24 -9 -24 8
0 29 13 45 29 23 23 29 38 29 71 0 61 -41 100 -105 100 -40 0 -52 -5 -81 -34z
m66 -13 c-1 -44 -37 -115 -56 -111 -43 8 -42 71 1 114 33 33 55 31 55 -3z"/>
<path d="M9365 4984 c-9 -9 -14 -19 -11 -21 3 -3 12 2 21 11 30 29 65 12 65
-31 0 -16 -7 -24 -25 -29 -30 -7 -33 -24 -5 -24 24 0 43 -34 35 -60 -9 -29
-51 -37 -75 -15 -11 10 -20 14 -20 9 0 -18 24 -34 51 -34 51 0 76 53 45 95
-12 16 -12 22 1 42 32 49 -40 99 -82 57z"/>
<path d="M6560 4985 c0 -15 18 -40 24 -34 3 3 -1 14 -9 25 -8 10 -14 15 -15 9z"/>
<path d="M8080 4980 c0 -5 11 -10 25 -10 24 0 25 -3 25 -60 0 -55 -2 -60 -25
-66 -14 -3 -25 -11 -25 -16 0 -6 7 -7 16 -4 9 4 36 11 60 17 50 13 60 28 14
21 l-30 -4 0 56 c0 53 1 56 25 56 14 0 25 5 25 10 0 6 -25 10 -55 10 -30 0
-55 -4 -55 -10z"/>
<path d="M6496 4946 c-4 -21 -5 -40 -2 -43 7 -8 18 42 14 64 -3 11 -7 3 -12
-21z"/>
<path d="M9133 4949 c-10 -26 -16 -29 -57 -29 -25 0 -46 -4 -46 -10 0 -6 31
-10 74 -10 41 0 78 5 81 10 4 6 -5 10 -19 10 -29 0 -30 3 -16 30 6 10 6 21 2
24 -4 3 -13 -8 -19 -25z"/>
<path d="M9067 4950 c3 -11 9 -20 14 -20 11 0 11 3 3 24 -9 23 -23 20 -17 -4z"/>
<path d="M10370 4953 c0 -13 29 -38 35 -31 3 3 -4 13 -15 23 -11 10 -20 13
-20 8z"/>
<path d="M7260 4933 c0 -5 9 -14 20 -21 11 -7 20 -8 20 -2 0 5 -9 14 -20 20
-11 6 -20 7 -20 3z"/>
<path d="M10350 4931 c0 -5 7 -15 17 -22 15 -13 15 -12 4 9 -12 23 -21 28 -21
13z"/>
<path d="M6840 4915 c0 -8 4 -15 10 -15 5 0 7 7 4 15 -4 8 -8 15 -10 15 -2 0
-4 -7 -4 -15z"/>
<path d="M7560 4921 c63 -6 64 -7 38 -20 -16 -8 -28 -20 -28 -27 0 -9 -20 -14
-62 -17 l-63 -3 63 -2 62 -2 0 -30 c0 -22 -6 -33 -22 -40 -21 -9 -20 -9 7 -7
27 2 30 6 33 39 l3 37 57 4 57 3 -57 2 c-32 1 -58 6 -58 11 0 5 16 19 35 31
19 12 35 24 35 26 0 2 -37 3 -82 2 l-83 -1 65 -6z"/>
<path d="M8829 4923 l64 -4 -31 -29 c-26 -23 -43 -30 -90 -33 l-57 -3 63 -2
62 -2 0 -34 c0 -28 -4 -36 -22 -39 -16 -4 -13 -5 7 -4 27 2 30 6 33 39 l3 37
62 4 62 3 -62 2 c-35 1 -63 7 -63 12 0 6 3 10 8 10 4 0 21 11 37 25 l30 24
-85 -1 c-77 -2 -79 -2 -21 -5z"/>
<path d="M6600 4840 c0 -40 4 -70 10 -70 6 0 10 11 10 25 0 23 4 25 45 25 48
0 61 -19 28 -40 -16 -9 -15 -10 7 -8 24 3 25 7 28 71 l3 67 -66 0 -65 0 0 -70z
m110 45 c0 -11 -12 -15 -45 -15 -33 0 -45 4 -45 15 0 11 12 15 45 15 33 0 45
-4 45 -15z m0 -41 c0 -12 -9 -14 -42 -12 -59 4 -63 28 -4 28 35 0 46 -4 46
-16z"/>
<path d="M9060 4830 l0 -50 50 0 50 0 0 50 0 50 -50 0 -50 0 0 -50z m80 0 c0
-28 -3 -30 -35 -30 -32 0 -35 2 -35 30 0 28 3 30 35 30 32 0 35 -2 35 -30z"/>
<path d="M10802 4838 c-17 -17 -15 -33 6 -49 15 -13 16 -12 3 3 -17 23 -7 48
19 48 25 0 37 -25 20 -45 -8 -10 -9 -15 -2 -15 17 0 24 19 18 46 -7 26 -43 33
-64 12z"/>
<path d="M7848 4808 c12 -12 25 -18 29 -14 4 4 -1 14 -11 22 -31 22 -43 17
-18 -8z"/>
<path d="M9870 4025 c0 -24 -3 -25 -62 -27 l-63 -1 60 -6 c56 -6 60 -8 63 -33
3 -25 1 -27 -45 -31 -26 -2 -1 -3 57 -3 58 0 84 1 58 3 -45 4 -48 6 -48 33 0
29 1 29 63 33 l62 3 -62 2 c-60 2 -63 3 -63 27 0 14 -4 25 -10 25 -5 0 -10
-11 -10 -25z"/>
<path d="M10120 4030 c0 -16 -7 -20 -32 -20 -27 -1 -30 -2 -15 -11 10 -6 17
-22 17 -39 0 -22 5 -30 18 -31 9 0 27 -2 39 -5 12 -2 25 1 28 6 4 6 -10 10
-34 10 -39 0 -41 2 -41 30 0 29 1 30 53 32 35 1 42 2 20 5 -25 3 -33 9 -33 24
0 10 -4 19 -10 19 -5 0 -10 -9 -10 -20z"/>
<path d="M6505 4020 c10 -11 20 -20 23 -20 3 0 -3 9 -13 20 -10 11 -20 20 -23
20 -3 0 3 -9 13 -20z"/>
<path d="M9015 4020 c10 -11 20 -20 23 -20 3 0 -3 9 -13 20 -10 11 -20 20 -23
20 -3 0 3 -9 13 -20z"/>
<path d="M10220 4009 c0 -17 -7 -46 -16 -65 -9 -19 -14 -37 -11 -41 4 -3 12 6
18 21 10 20 19 26 46 26 38 0 47 -26 11 -33 -21 -3 -21 -4 -5 -12 28 -12 44
12 52 78 l7 57 -51 0 c-50 0 -51 0 -51 -31z m80 1 c0 -5 -16 -10 -35 -10 -19
0 -35 5 -35 10 0 6 16 10 35 10 19 0 35 -4 35 -10z m-2 -37 c2 -9 -8 -13 -32
-13 -33 0 -44 8 -31 22 10 10 58 3 63 -9z"/>
<path d="M10830 4015 c0 -23 -4 -25 -42 -26 -24 0 -52 -5 -63 -10 -14 -6 -1
-8 45 -6 52 2 65 -1 65 -13 0 -8 -8 -17 -19 -20 -51 -14 -44 -77 9 -73 25 2
26 1 12 -20 -7 -12 -24 -26 -35 -32 -23 -10 -29 -25 -11 -25 6 0 24 14 41 30
29 30 30 33 23 95 l-6 64 58 4 58 3 -57 2 c-55 2 -58 3 -58 27 0 14 -4 25 -10
25 -5 0 -10 -11 -10 -25z m10 -116 c0 -12 -7 -19 -19 -19 -26 0 -36 17 -21 35
15 18 40 8 40 -16z"/>
<path d="M6355 4000 c-9 -19 -31 -49 -47 -66 -17 -18 -25 -34 -20 -38 6 -3 19
5 30 19 26 33 92 37 92 4 0 -26 -16 -57 -48 -91 -14 -16 -20 -28 -13 -28 22 0
61 53 72 97 11 41 13 43 50 43 22 0 39 5 39 10 0 6 -32 10 -75 10 -41 0 -75 3
-75 6 0 3 5 14 11 25 6 11 8 25 6 32 -2 7 -12 -4 -22 -23z"/>
<path d="M6482 4000 c7 -11 17 -20 22 -20 5 0 1 9 -9 20 -10 11 -20 20 -22 20
-2 0 2 -9 9 -20z"/>
<path d="M8985 4000 c10 -11 20 -18 23 -15 7 6 -18 35 -31 35 -5 0 -2 -9 8
-20z"/>
<path d="M10488 4002 c-49 -9 -88 -20 -88 -25 0 -8 17 -7 105 10 l29 6 -22
-28 c-33 -42 -30 -99 7 -136 16 -16 37 -29 45 -29 25 0 19 17 -9 24 -36 9 -59
49 -51 88 7 38 52 88 77 88 10 0 21 5 24 10 8 12 -7 11 -117 -8z"/>
<path d="M7020 4000 c0 -5 -14 -41 -31 -80 -23 -50 -37 -70 -50 -70 -11 0 -19
-5 -19 -11 0 -6 11 -8 28 -5 82 15 155 18 163 5 4 -7 11 -10 15 -7 3 4 -8 25
-26 48 -18 23 -35 38 -38 35 -3 -3 0 -11 6 -17 24 -24 12 -36 -38 -40 -28 -1
-50 1 -50 5 0 4 11 29 24 55 31 63 40 92 27 92 -6 0 -11 -4 -11 -10z"/>
<path d="M7530 4002 c0 -21 42 -186 51 -196 7 -7 49 114 49 142 0 6 4 13 9 16
4 3 19 -33 31 -79 13 -47 26 -85 31 -85 4 0 17 44 29 98 12 53 24 100 27 105
2 4 0 7 -5 7 -6 0 -18 -35 -27 -77 -9 -43 -20 -81 -24 -85 -3 -4 -17 31 -30
77 -13 47 -26 85 -30 85 -4 0 -15 -33 -25 -72 -27 -107 -31 -109 -51 -27 -18
74 -34 117 -35 91z"/>
<path d="M7970 3905 c0 -63 4 -105 10 -105 6 0 10 5 10 12 0 9 3 9 12 0 18
-18 63 -14 81 6 20 22 22 81 5 104 -19 24 -52 30 -74 13 -18 -14 -17 -14 12
-9 38 7 64 -15 64 -55 0 -30 -27 -61 -52 -61 -26 0 -50 36 -47 72 4 65 -1 128
-11 128 -6 0 -10 -42 -10 -105z"/>
<path d="M8879 3989 c13 -11 27 -17 30 -13 7 7 -28 34 -43 34 -6 -1 0 -10 13
-21z"/>
<path d="M9495 4000 c-40 -6 -30 -7 54 -8 l105 -2 -34 -35 c-19 -19 -29 -35
-23 -35 13 0 73 66 73 80 0 11 -96 11 -175 0z"/>
<path d="M8520 3992 c0 -5 12 -17 26 -27 17 -11 25 -13 22 -4 -5 16 -48 44
-48 31z"/>
<path d="M8238 3973 l42 -4 0 -50 0 -49 -57 0 c-31 0 -53 -3 -50 -7 10 -9 227
-10 227 0 0 4 -22 7 -50 7 l-50 0 0 49 0 50 43 4 c23 2 -1 4 -53 4 -52 0 -76
-2 -52 -4z"/>
<path d="M9170 3970 c0 -6 32 -10 75 -10 43 0 75 4 75 10 0 6 -32 10 -75 10
-43 0 -75 -4 -75 -10z"/>
<path d="M10600 3962 c0 -4 10 -13 23 -21 22 -14 22 -14 3 8 -20 22 -26 25
-26 13z"/>
<path d="M9550 3936 c0 -37 -18 -78 -48 -108 -14 -16 -21 -28 -15 -28 19 0 62
58 73 98 13 47 13 62 0 62 -5 0 -10 -11 -10 -24z"/>
<path d="M7829 3936 c-48 -24 -51 -107 -3 -128 28 -13 75 -2 82 20 3 10 -3 9
-22 -3 -36 -24 -76 -8 -76 30 0 23 3 25 50 25 42 0 50 3 50 19 0 34 -45 55
-81 37z m61 -26 c10 -19 8 -20 -35 -20 -46 0 -54 7 -33 28 19 19 56 14 68 -8z"/>
<path d="M8655 3909 c-27 -21 -69 -47 -92 -56 -42 -18 -56 -33 -30 -33 20 0
128 67 162 101 42 41 19 35 -40 -12z"/>
<path d="M8820 3941 c0 -4 11 -13 25 -19 14 -6 25 -8 25 -3 0 4 -11 13 -25 19
-14 6 -25 8 -25 3z"/>
<path d="M8993 3914 c-22 -19 -66 -47 -97 -63 -31 -17 -52 -32 -47 -35 13 -8
103 42 152 84 55 48 48 61 -8 14z"/>
<path d="M10580 3936 c0 -2 8 -10 18 -17 15 -13 16 -12 3 4 -13 16 -21 21 -21
13z"/>
<path d="M6648 3913 c34 -2 90 -2 125 0 34 2 6 3 -63 3 -69 0 -97 -1 -62 -3z"/>
<path d="M9870 3893 c0 -5 9 -18 20 -28 11 -10 20 -14 20 -8 0 5 -9 18 -20 28
-11 10 -20 14 -20 8z"/>
<path d="M9832 3843 l-2 -53 54 0 c54 0 76 16 59 43 -4 6 -10 1 -15 -12 -6
-18 -14 -22 -45 -19 -37 3 -38 4 -44 48 l-6 45 -1 -52z"/>
<path d="M10083 3883 c4 -3 28 -7 54 -7 63 -1 72 -26 9 -26 -25 0 -46 -4 -46
-10 0 -5 21 -10 46 -10 71 0 51 -24 -27 -31 -42 -4 -17 -6 76 -6 93 0 118 2
76 6 -78 7 -98 31 -27 31 25 0 46 5 46 10 0 6 -21 10 -46 10 -62 0 -53 23 10
26 95 5 57 14 -59 14 -65 0 -115 -3 -112 -7z"/>
<path d="M9763 3838 c-12 -21 -18 -38 -12 -36 16 5 51 66 42 71 -5 3 -18 -13
-30 -35z"/>
<path d="M9960 3877 c0 -5 8 -22 17 -38 17 -29 33 -38 33 -20 0 12 -49 69 -50
58z"/>
<path d="M9183 3863 c31 -2 83 -2 115 0 31 2 5 3 -58 3 -63 0 -89 -1 -57 -3z"/>
<path d="M11036 3851 c-3 -4 6 -6 19 -3 29 5 44 -20 25 -43 -7 -9 -8 -15 -2
-15 14 0 24 29 17 51 -6 19 -49 27 -59 10z"/>
<path d="M7230 3845 c0 -13 44 -54 52 -49 5 4 -1 17 -13 30 -21 22 -39 31 -39
19z"/>
<path d="M11020 3823 c0 -6 8 -17 18 -24 16 -13 16 -13 2 6 -8 11 -16 22 -17
24 -2 2 -3 0 -3 -6z"/>
<path d="M5521 3043 c-1 -16 -7 -23 -21 -23 -11 0 -20 -4 -20 -10 0 -5 9 -10
20 -10 13 0 20 -7 20 -20 0 -15 -7 -20 -25 -20 -14 0 -25 -4 -25 -10 0 -5 11
-10 25 -10 23 0 25 -4 25 -45 0 -29 -4 -45 -12 -45 -7 0 -2 -10 10 -22 20 -20
33 -23 120 -25 l97 -1 -91 7 c-49 4 -96 11 -102 15 -21 13 -14 56 11 66 l22 9
-22 0 c-30 1 -33 41 -3 41 11 0 20 5 20 10 0 6 -9 10 -20 10 -13 0 -20 7 -20
20 0 13 7 20 20 20 11 0 20 5 20 10 0 6 -9 10 -19 10 -12 0 -21 8 -24 23 l-4
22 -2 -22z"/>
<path d="M5940 3031 c0 -25 -5 -30 -27 -34 l-28 -4 28 -2 c22 -1 27 -6 27 -26
0 -22 -5 -25 -37 -26 l-38 -2 38 -6 38 -6 -38 -36 c-21 -20 -46 -41 -57 -46
-10 -6 -14 -13 -9 -16 6 -4 31 12 57 34 l46 41 0 -56 c0 -31 5 -56 10 -56 6 0
10 25 10 55 l0 56 35 -36 c20 -19 41 -35 47 -35 7 0 -7 18 -30 40 -23 23 -42
45 -42 50 0 5 17 11 38 13 l37 4 -42 1 c-38 2 -43 5 -43 26 0 20 6 25 33 29
l32 4 -32 1 c-30 2 -33 5 -33 32 0 17 -4 30 -10 30 -5 0 -10 -13 -10 -29z"/>
<path d="M7595 3050 c-3 -6 1 -7 9 -4 18 7 21 14 7 14 -6 0 -13 -4 -16 -10z"/>
<path d="M8555 3030 c10 -11 20 -18 23 -15 7 6 -18 35 -31 35 -5 0 -2 -9 8
-20z"/>
<path d="M9375 3028 c-7 -15 -22 -25 -45 -29 l-35 -6 33 -4 34 -4 -31 -42
c-37 -50 -40 -65 -8 -35 32 30 75 39 83 17 5 -11 -4 -25 -26 -43 -42 -36 -38
-64 11 -76 21 -5 49 -5 65 0 27 8 25 9 -21 12 -64 4 -82 18 -59 43 21 23 34
24 34 4 0 -24 18 -18 22 7 2 15 13 25 36 32 17 5 32 13 32 17 0 11 -3 11 -36
-1 -22 -9 -29 -7 -41 10 -8 11 -25 20 -39 20 -44 0 -11 36 43 48 l48 10 -44 1
c-38 1 -43 3 -38 21 7 27 -6 25 -18 -2z"/>
<path d="M9602 2918 c2 -123 2 -127 7 -48 l6 85 43 3 42 3 0 45 0 44 -50 0
-50 0 2 -132z m86 105 c2 -9 -9 -13 -37 -13 -39 0 -50 8 -34 24 11 11 66 2 71
-11z m0 -40 c2 -9 -9 -13 -37 -13 -39 0 -50 8 -34 24 11 11 66 2 71 -11z"/>
<path d="M9740 3005 l0 -45 40 0 c43 0 43 0 43 -75 0 -62 -4 -75 -18 -75 -8 0
-15 -5 -15 -11 0 -6 10 -9 23 -7 21 3 22 7 25 131 l3 127 -51 0 -50 0 0 -45z
m80 19 c0 -9 -11 -14 -35 -14 -32 0 -43 8 -30 22 12 12 65 6 65 -8z m5 -39 c0
-5 -17 -11 -37 -13 -30 -3 -38 0 -38 13 0 13 8 16 38 13 20 -2 37 -7 37 -13z"/>
<path d="M9940 3040 c0 -5 17 -10 37 -10 l37 0 -22 -22 c-17 -17 -24 -20 -34
-10 -21 21 -32 13 -12 -9 19 -22 19 -23 -29 -50 -10 -6 -16 -13 -13 -16 3 -3
16 1 29 10 33 21 67 12 67 -19 0 -20 -6 -23 -42 -27 l-43 -4 43 -1 c23 -1 42
-5 42 -10 0 -20 -34 -52 -63 -60 -17 -4 -27 -11 -22 -14 20 -12 76 21 88 52 8
21 18 30 34 30 20 0 23 -5 23 -41 l0 -40 47 3 c39 2 48 7 51 23 2 18 2 18 -8
3 -7 -12 -23 -18 -45 -18 -33 0 -35 2 -35 34 0 34 1 35 43 39 l42 4 -42 1
c-38 2 -43 5 -43 26 0 30 32 38 73 19 15 -8 27 -10 27 -5 0 5 -12 14 -26 21
l-27 12 24 26 24 27 -29 -18 c-21 -13 -31 -15 -40 -6 -8 8 -5 16 14 30 28 22
21 27 -11 8 -17 -11 -22 -10 -35 6 -10 15 -14 16 -14 5 0 -8 14 -31 31 -52
l30 -37 -71 0 -72 0 31 42 c17 22 28 45 25 50 -7 11 -84 10 -84 -2z m120 -125
c0 -18 -5 -25 -18 -25 -25 0 -31 7 -25 31 8 29 43 25 43 -6z"/>
<path d="M10290 2947 c0 -58 3 -112 6 -121 8 -21 85 -21 125 0 43 22 28 30
-21 10 -47 -19 -76 -20 -85 -5 -4 6 -8 55 -9 110 -4 134 -16 139 -16 6z"/>
<path d="M11631 3028 c-1 -26 -4 -28 -48 -29 -27 0 -57 -5 -68 -10 -13 -6 2
-7 48 -3 63 5 67 4 67 -15 0 -14 -6 -21 -20 -21 -27 0 -44 -34 -30 -61 9 -16
18 -19 36 -15 13 4 24 3 24 -2 0 -11 -36 -49 -52 -55 -7 -2 -9 -8 -5 -13 4 -4
22 6 39 23 32 33 37 57 23 125 l-7 37 63 4 64 3 -62 2 c-59 2 -62 3 -66 30
l-4 27 -2 -27z m-1 -119 c0 -12 -7 -19 -20 -19 -22 0 -29 35 -7 43 18 6 27 -2
27 -24z"/>
<path d="M5578 2959 c2 -52 -1 -85 -8 -95 -15 -17 -3 -18 34 -4 23 8 26 7 26
-10 0 -25 11 -25 43 0 22 17 26 18 37 5 7 -9 15 -13 18 -10 3 3 -2 13 -11 23
-13 15 -15 25 -7 53 19 64 14 79 -22 78 -30 -1 -31 -2 -8 -8 14 -4 25 -12 24
-19 -1 -7 -2 -21 -2 -32 -3 -29 -19 -25 -26 6 -4 15 -9 24 -12 21 -3 -3 0 -23
7 -46 10 -33 9 -43 -2 -57 -13 -16 -15 -13 -19 27 -8 74 0 137 18 142 10 3 -8
5 -38 6 l-55 1 3 -81z m50 49 c-5 -32 -28 -35 -28 -4 0 17 5 26 16 26 10 0 14
-7 12 -22z m2 -58 c0 -11 -7 -20 -15 -20 -8 0 -15 9 -15 20 0 11 7 20 15 20 8
0 15 -9 15 -20z m0 -50 c0 -11 -7 -20 -15 -20 -8 0 -15 9 -15 20 0 11 7 20 15
20 8 0 15 -9 15 -20z"/>
<path d="M7852 3000 c-3 -74 -22 -122 -60 -157 -42 -39 -28 -45 17 -7 38 31
54 82 49 154 -4 53 -4 53 -6 10z"/>
<path d="M8405 3001 c-10 -22 -28 -50 -41 -62 -13 -12 -24 -27 -24 -33 0 -5
13 2 28 17 20 19 39 27 65 27 20 0 37 -5 37 -10 0 -26 -33 -87 -58 -107 -19
-16 -22 -23 -11 -23 31 0 79 69 79 114 0 24 4 26 40 26 22 0 40 5 40 10 0 6
-31 10 -74 10 l-75 0 15 35 c20 48 1 44 -21 -4z"/>
<path d="M11300 3021 c0 -15 -8 -21 -37 -24 l-38 -4 36 -1 c31 -2 37 -6 42
-28 4 -24 3 -26 -29 -22 -21 2 -33 0 -31 -6 2 -6 18 -12 35 -14 26 -3 32 -8
32 -28 0 -19 -5 -24 -24 -24 -37 0 -56 -10 -56 -30 0 -43 76 -52 87 -10 6 24
13 25 39 5 22 -17 34 -19 34 -6 0 5 -16 15 -35 23 -32 11 -36 16 -33 43 2 24
8 31 31 33 15 2 27 7 27 12 0 5 -13 7 -30 4 -27 -6 -30 -4 -30 20 0 22 4 26
30 26 17 0 30 5 30 11 0 7 -11 9 -30 6 -25 -6 -30 -3 -30 13 0 11 -4 20 -10
20 -5 0 -10 -9 -10 -19z m5 -181 c0 -18 -43 -26 -59 -10 -8 8 -7 13 4 20 21
14 55 8 55 -10z"/>
<path d="M6208 3012 c-49 -9 -88 -20 -88 -25 0 -5 12 -6 28 -3 15 3 45 8 66
12 l40 7 -22 -28 c-15 -19 -22 -42 -22 -70 0 -36 5 -48 31 -69 31 -27 59 -34
59 -16 0 6 -7 10 -15 10 -28 0 -65 47 -65 81 0 37 56 99 89 99 12 0 21 5 21
10 0 12 -11 11 -122 -8z"/>
<path d="M7763 2965 c0 -38 2 -53 4 -32 2 20 2 52 0 70 -2 17 -4 1 -4 -38z"/>
<path d="M8535 3010 c10 -11 20 -20 23 -20 3 0 -3 9 -13 20 -10 11 -20 20 -23
20 -3 0 3 -9 13 -20z"/>
<path d="M10653 3012 c-51 -9 -93 -20 -93 -25 0 -8 16 -7 103 10 l28 6 -20
-34 c-30 -49 -27 -94 8 -130 16 -16 39 -29 50 -29 30 0 26 7 -13 25 -44 21
-60 57 -46 101 13 37 53 74 81 74 11 0 19 5 19 10 0 12 2 12 -117 -8z"/>
<path d="M5790 2955 l0 -65 35 0 35 0 0 65 0 65 -35 0 -35 0 0 -65z m60 -5 c0
-47 -2 -50 -25 -50 -23 0 -25 3 -25 50 0 47 2 50 25 50 23 0 25 -3 25 -50z"/>
<path d="M6420 3015 c0 -23 45 -205 51 -205 7 0 26 59 44 133 4 15 10 29 14
31 4 3 17 -33 30 -80 13 -46 26 -84 30 -84 4 0 18 47 33 105 14 58 22 105 18
105 -4 0 -16 -33 -25 -72 -10 -40 -21 -79 -25 -86 -4 -8 -16 22 -30 72 -12 47
-26 86 -29 86 -4 0 -17 -39 -30 -86 -26 -94 -32 -94 -51 1 -11 55 -29 103 -30
80z"/>
<path d="M6862 2915 c-1 -72 2 -105 8 -95 7 12 12 12 22 2 33 -33 98 4 98 56
0 57 -47 91 -94 67 -25 -13 -25 -13 -29 33 -2 26 -4 -2 -5 -63z m98 9 c30 -35
6 -104 -35 -104 -25 0 -48 28 -48 58 0 38 18 62 48 62 12 0 28 -7 35 -16z"/>
<path d="M7115 3011 c-42 -5 -34 -6 49 -11 l99 -5 -27 -32 c-15 -18 -23 -33
-18 -33 10 0 72 72 72 84 0 7 -100 5 -175 -3z"/>
<path d="M7597 3008 c2 -5 10 -8 18 -8 8 0 16 3 18 8 3 4 -5 7 -18 7 -13 0
-21 -3 -18 -7z"/>
<path d="M9075 3005 c-39 -99 -65 -145 -84 -145 -12 0 -21 -5 -21 -11 0 -7 12
-9 33 -6 17 4 60 9 93 13 53 5 63 4 71 -11 6 -10 13 -13 16 -7 4 5 -11 29 -33
53 -21 24 -39 39 -40 33 0 -6 7 -17 15 -24 23 -19 8 -30 -45 -30 l-49 0 30 65
c17 36 29 70 26 77 -3 9 -7 6 -12 -7z"/>
<path d="M7480 3000 l-85 -6 83 -2 c49 -1 82 -6 82 -12 0 -37 -75 -121 -119
-135 -20 -6 -30 -25 -13 -25 20 0 103 64 122 94 22 37 38 97 24 94 -5 -1 -47
-5 -94 -8z"/>
<path d="M10886 2963 c9 -56 41 -123 57 -123 15 0 47 31 47 45 0 4 -9 0 -21
-11 -21 -19 -21 -18 -40 4 -10 13 -21 46 -25 73 -4 27 -11 49 -16 49 -5 0 -6
-17 -2 -37z"/>
<path d="M11042 2983 c25 -53 43 -83 50 -83 4 0 8 2 8 6 0 12 -46 84 -53 84
-5 0 -7 -3 -5 -7z"/>
<path d="M6320 2976 c0 -11 30 -39 36 -34 2 3 -5 13 -16 23 -11 10 -20 15 -20
11z"/>
<path d="M7162 2925 c-8 -27 -25 -62 -39 -77 -30 -31 -24 -51 7 -23 25 22 53
95 48 126 -3 18 -7 11 -16 -26z"/>
<path d="M6300 2953 c0 -6 8 -17 18 -24 16 -13 16 -13 2 6 -8 11 -16 22 -17
24 -2 2 -3 0 -3 -6z"/>
<path d="M6696 2934 c-22 -22 -21 -87 2 -107 24 -22 66 -22 87 -1 9 9 14 19
11 21 -3 3 -12 -2 -21 -11 -24 -23 -52 -20 -71 9 -22 34 -11 45 47 45 36 0 49
4 49 14 0 24 -29 46 -60 46 -16 0 -36 -7 -44 -16z m82 -16 c3 -15 -4 -18 -43
-18 -43 0 -45 1 -35 21 14 26 73 24 78 -3z"/>
<path d="M8708 2923 c34 -2 90 -2 125 0 34 2 6 3 -63 3 -69 0 -97 -1 -62 -3z"/>
<path d="M9668 2923 c30 -6 25 -35 -8 -44 -24 -7 -24 -7 -2 -8 12 -1 22 -7 22
-16 0 -8 -10 -24 -22 -36 -14 -13 -17 -20 -8 -17 8 2 24 19 35 36 28 44 53 42
58 -5 l4 -38 1 37 c2 32 6 37 30 41 l27 4 -27 2 c-36 1 -40 37 -5 44 12 2 -12
4 -53 4 -41 0 -65 -2 -52 -4z m72 -23 c0 -13 -7 -20 -20 -20 -13 0 -20 7 -20
20 0 13 7 20 20 20 13 0 20 -7 20 -20z"/>
<path d="M5480 2881 c0 -16 -5 -42 -10 -57 -6 -15 -8 -29 -6 -32 8 -8 28 50
30 86 1 17 -2 32 -6 32 -4 0 -8 -13 -8 -29z"/>
<path d="M11824 2856 c-8 -22 -1 -49 14 -52 7 -1 8 0 2 3 -5 2 -10 16 -10 30
0 22 3 25 29 21 17 -2 28 -1 25 4 -9 14 -54 9 -60 -6z"/>
<path d="M8010 2852 c0 -5 11 -19 25 -32 19 -18 25 -20 25 -8 0 8 -8 22 -18
31 -20 19 -32 22 -32 9z"/>
<path d="M11870 2810 c-9 -6 -10 -10 -3 -10 6 0 15 5 18 10 8 12 4 12 -15 0z"/>
<path d="M7298 2033 c-2 -23 -8 -29 -35 -31 -18 -2 -33 -8 -33 -13 0 -7 12 -8
30 -4 17 4 30 4 30 1 0 -11 -25 -62 -43 -88 -10 -16 -13 -28 -8 -28 15 0 49
56 57 93 4 21 13 29 35 34 16 3 29 9 29 13 0 4 -11 5 -26 2 -23 -4 -24 -2 -18
22 4 16 2 26 -4 26 -6 0 -12 -12 -14 -27z"/>
<path d="M7775 2040 c10 -11 20 -20 22 -20 2 0 -2 9 -9 20 -7 11 -17 20 -22
20 -5 0 -1 -9 9 -20z"/>
<path d="M8080 2056 c0 -2 7 -9 15 -16 13 -11 14 -10 9 4 -5 14 -24 23 -24 12z"/>
<path d="M8907 2038 c-6 -24 -13 -28 -45 -30 -37 -1 -37 -1 -4 -5 17 -2 32 -8
32 -12 0 -3 -13 -22 -30 -41 -35 -41 -40 -63 -7 -32 32 30 75 39 83 17 5 -11
-4 -25 -26 -43 -42 -36 -38 -64 11 -76 21 -5 49 -5 65 0 26 8 23 9 -26 12 -66
4 -80 14 -55 42 21 24 35 26 35 5 0 -8 5 -15 10 -15 6 0 10 11 10 24 0 19 7
25 35 30 19 4 35 11 35 16 0 5 -14 5 -32 0 -26 -8 -34 -6 -45 10 -8 11 -25 20
-39 20 -40 0 -14 33 38 46 l43 12 -37 1 c-30 1 -37 5 -40 24 -3 20 -4 20 -11
-5z"/>
<path d="M9220 2054 c0 -11 45 -43 60 -43 11 0 10 4 -5 15 -29 22 -55 36 -55
28z"/>
<path d="M11161 2038 c-1 -26 -4 -28 -48 -29 -27 0 -57 -5 -68 -10 -14 -6 -1
-8 45 -6 53 2 65 -1 68 -15 2 -11 -4 -18 -19 -20 -53 -8 -48 -75 5 -71 22 2
25 -1 16 -17 -5 -10 -22 -27 -37 -39 -16 -11 -22 -21 -15 -21 8 0 27 14 44 30
29 30 30 33 23 95 l-6 64 58 4 58 3 -57 2 c-54 2 -57 3 -61 30 l-4 27 -2 -27z
m-1 -119 c0 -12 -7 -19 -19 -19 -26 0 -36 17 -21 35 15 18 40 8 40 -16z"/>
<path d="M8012 2018 c-2 -36 -4 -38 -37 -38 -32 0 -35 2 -35 30 0 17 -4 30
-10 30 -5 0 -10 -13 -10 -30 0 -28 -3 -30 -35 -30 -19 0 -35 -4 -35 -10 0 -5
16 -10 35 -10 32 0 35 -2 35 -30 0 -16 5 -30 10 -30 6 0 10 14 10 30 0 28 3
30 35 30 34 0 34 -1 28 -32 -8 -41 -24 -66 -60 -89 -22 -15 -24 -19 -10 -19
31 0 76 54 83 99 6 40 8 41 45 41 22 0 39 5 39 10 0 6 -18 10 -39 10 -39 0
-40 1 -44 38 l-4 37 -1 -37z"/>
<path d="M8062 2030 c7 -11 17 -20 22 -20 5 0 1 9 -9 20 -10 11 -20 20 -22 20
-2 0 2 -9 9 -20z"/>
<path d="M8330 2013 c-19 -19 -59 -49 -88 -65 -29 -17 -51 -33 -48 -35 3 -3
26 6 52 21 25 14 48 26 50 26 2 0 4 -31 4 -70 0 -40 4 -70 10 -70 6 0 10 34
10 81 0 77 1 81 30 106 28 23 39 44 23 42 -5 0 -24 -16 -43 -36z"/>
<path d="M9530 2026 c0 -44 -10 -56 -46 -56 -19 0 -34 -5 -34 -11 0 -7 11 -8
30 -4 39 8 39 -4 0 -74 -34 -61 -36 -68 -16 -52 7 6 25 38 40 71 22 50 31 60
52 60 21 0 24 -5 24 -34 0 -51 -16 -84 -42 -89 -21 -4 -20 -4 4 -6 32 -1 44
17 54 78 7 46 -6 71 -38 71 -18 0 -19 5 -14 35 4 22 3 35 -4 35 -5 0 -10 -11
-10 -24z"/>
<path d="M9932 2024 c-2 -29 -6 -32 -44 -40 l-43 -8 44 -4 44 -3 -7 -45 c-6
-44 -31 -94 -47 -94 -5 0 -9 -5 -9 -10 0 -17 38 7 52 33 7 12 15 44 18 72 5
46 8 50 35 56 l30 7 -32 1 c-28 1 -32 5 -36 34 l-4 32 -1 -31z"/>
<path d="M10831 2043 c4 -26 -5 -33 -38 -34 l-38 -2 39 -6 c32 -5 40 -10 41
-29 2 -21 -2 -23 -32 -20 -20 3 -32 0 -30 -6 2 -6 18 -12 35 -14 26 -3 32 -8
32 -28 0 -19 -5 -24 -24 -24 -37 0 -56 -10 -56 -30 0 -43 76 -52 87 -10 6 24
13 25 39 5 22 -17 34 -19 34 -6 0 5 -16 15 -35 23 -32 11 -36 16 -33 43 2 24
8 31 31 33 15 2 27 7 27 12 0 5 -13 7 -30 4 -27 -6 -30 -4 -30 20 0 22 4 26
30 26 17 0 30 5 30 11 0 7 -11 9 -30 6 -25 -6 -30 -3 -30 13 0 11 -4 20 -10
20 -5 0 -9 -3 -9 -7z m4 -193 c0 -18 -43 -26 -59 -10 -8 8 -7 13 4 20 21 14
55 8 55 -10z"/>
<path d="M7625 2030 c-36 -6 -32 -7 28 -9 39 0 67 3 67 9 0 11 -34 11 -95 0z"/>
<path d="M7752 2020 c7 -11 17 -20 22 -20 5 0 1 9 -9 20 -10 11 -20 20 -22 20
-2 0 2 -9 9 -20z"/>
<path d="M9676 2026 c10 -8 21 -12 24 -10 5 6 -21 24 -34 24 -6 0 -1 -6 10
-14z"/>
<path d="M10183 2022 c-51 -9 -93 -20 -93 -25 0 -8 16 -7 103 10 l28 6 -20
-34 c-30 -49 -27 -94 8 -130 16 -16 39 -29 50 -29 30 0 26 9 -10 22 -44 15
-65 65 -45 112 15 36 50 66 78 66 10 0 18 5 18 10 0 12 2 12 -117 -8z"/>
<path d="M6020 2010 c26 -20 40 -25 40 -14 0 11 -34 33 -50 33 -10 1 -6 -6 10
-19z"/>
<path d="M6807 2018 c2 -5 10 -8 18 -8 8 0 16 3 18 8 3 4 -5 7 -18 7 -13 0
-21 -3 -18 -7z"/>
<path d="M9790 1940 c0 -51 3 -90 6 -87 7 7 5 169 -2 176 -2 2 -4 -38 -4 -89z"/>
<path d="M6300 2012 c0 -5 12 -17 26 -27 17 -11 25 -13 22 -4 -5 16 -48 44
-48 31z"/>
<path d="M6690 2010 l-85 -6 87 -2 88 -2 -12 -27 c-16 -38 -75 -99 -109 -114
-16 -6 -29 -15 -29 -20 0 -31 103 41 133 93 29 48 37 80 22 83 -5 0 -48 -2
-95 -5z"/>
<path d="M7030 1936 c0 -52 4 -86 10 -86 17 0 120 61 120 71 0 14 -5 12 -56
-21 -26 -16 -49 -28 -51 -26 -2 2 -4 33 -4 70 -1 36 -5 68 -10 72 -5 3 -9 -31
-9 -80z"/>
<path d="M8530 2012 c0 -13 23 -32 38 -32 7 0 10 4 7 10 -9 14 -45 32 -45 22z"/>
<path d="M9640 2016 c0 -3 9 -10 20 -16 11 -6 20 -8 20 -6 0 3 -9 10 -20 16
-11 6 -20 8 -20 6z"/>
<path d="M6971 1982 c-2 -46 -25 -96 -52 -115 -12 -9 -20 -20 -16 -24 4 -3 21
6 37 22 31 30 44 73 37 121 -4 29 -4 29 -6 -4z"/>
<path d="M10417 1973 c8 -54 39 -123 56 -123 16 0 53 37 45 45 -3 3 -11 -1
-18 -10 -29 -34 -55 -2 -67 81 -3 24 -9 44 -14 44 -4 0 -5 -17 -2 -37z"/>
<path d="M7410 1980 c33 -26 52 -25 21 0 -13 11 -28 20 -35 20 -6 0 0 -9 14
-20z"/>
<path d="M10572 1993 c25 -53 43 -83 50 -83 4 0 8 3 8 6 0 14 -44 84 -53 84
-5 0 -7 -3 -5 -7z"/>
<path d="M9214 1905 l1 -90 37 -3 c47 -4 78 12 77 41 l0 22 -11 -22 c-9 -19
-19 -23 -54 -23 l-43 0 -4 83 -3 82 0 -90z"/>
<path d="M9630 1974 c0 -13 58 -69 65 -63 2 3 -11 21 -30 39 -19 19 -35 29
-35 24z"/>
<path d="M5966 1961 c-3 -4 6 -13 20 -20 30 -13 34 -14 34 -3 0 13 -48 33 -54
23z"/>
<path d="M6146 1941 c-16 -17 -58 -45 -93 -63 -34 -18 -63 -36 -63 -40 0 -13
9 -10 69 23 68 37 125 83 119 99 -2 6 -16 -2 -32 -19z"/>
<path d="M6440 1933 c-25 -19 -67 -47 -95 -61 -27 -14 -44 -27 -38 -29 18 -6
109 45 157 89 52 47 35 48 -24 1z"/>
<path d="M7640 1960 c-63 -4 -77 -7 -42 -8 44 -2 52 -5 52 -22 0 -31 -20 -67
-46 -81 -23 -12 -32 -29 -16 -29 30 0 82 69 82 110 0 17 6 20 50 20 28 0 50 5
50 10 0 6 -8 9 -17 8 -10 -1 -61 -5 -113 -8z"/>
<path d="M8670 1933 c-25 -19 -67 -47 -95 -61 -27 -14 -44 -27 -38 -29 17 -6
105 43 151 83 51 44 37 50 -18 7z"/>
<path d="M9320 1965 c0 -13 44 -75 53 -75 4 0 7 3 7 8 -1 11 -60 78 -60 67z"/>
<path d="M9134 1915 c-11 -25 -17 -45 -13 -45 12 0 41 59 37 76 -2 8 -12 -6
-24 -31z"/>
<path d="M7360 1911 c0 -37 -2 -40 -32 -43 -28 -2 -33 -7 -33 -28 0 -21 5 -26
32 -28 22 -2 35 3 45 17 13 19 17 19 34 6 22 -17 34 -19 34 -6 0 5 -13 14 -30
21 -27 11 -30 17 -30 56 0 24 -4 44 -10 44 -5 0 -10 -18 -10 -39z m0 -65 c0
-17 -24 -28 -45 -20 -29 12 -14 34 22 34 13 0 23 -6 23 -14z"/>
<path d="M11354 1866 c-8 -22 -1 -49 14 -52 7 -1 8 0 2 3 -5 2 -10 16 -10 30
0 22 3 25 29 21 17 -2 28 -1 25 4 -9 14 -54 9 -60 -6z"/>
</g>
</svg>
